<svg id="Capa_1" enable-background="new 0 0 495.695 495.695" height="512" viewBox="0 0 495.695 495.695" width="512" xmlns="http://www.w3.org/2000/svg"><g><g><path d="m446.964 391.194 20-17.036v-229.022h-463.473c-2.202 10.814-3.491 19.527-3.491 19.527v209.496l30 17.036h416.964z" fill="#edf6ff"/></g><g><path d="m446.964 104.113h-30c11.046 0 20 8.954 20 20v275.113c0 11.046-8.954 20-20 20h30c11.046 0 20-8.954 20-20v-275.113c.001-11.046-8.954-20-20-20z" fill="#bed9fd"/></g><g><path d="m336.046 324.614c-23.961 26.46-65.58 26.289-89.324-.366l-47.553-53.385c-22.521-25.283-61.483-26.949-86.08-3.681l-113.089 106.976v31.29c2.618 7.996 10.129 13.777 19 13.777h426.964c11.046 0 20-8.954 20-20v-25.067l-39.098-47.432c-23.292-28.258-66.239-29.256-90.82-2.112z" fill="#b1f8d3"/></g><g><path d="m427.866 326.726c-15.484-18.785-39.651-25.507-61.337-19.94 11.822 3.029 22.878 9.677 31.337 19.94l23.154 28.089c10.307 12.505 15.944 28.205 15.944 44.41 0 11.046-8.954 20-20 20h30c11.046 0 20-8.954 20-20v-25.068z" fill="#abf0cc"/></g><g><path d="m466.965 164.663v-40.55c0-11.046-8.954-20-20-20h-426.965c-11.046 0-20 8.954-20 20v40.55z" fill="#62a4fb"/></g><g><circle cx="290.112" cy="246.112" fill="#f5e99a" r="33.599"/></g><g><path d="m290.111 212.513c-5.392 0-10.484 1.277-15 3.535 11.025 5.511 18.599 16.9 18.599 30.064s-7.575 24.552-18.599 30.064c4.516 2.258 9.608 3.535 15 3.535 18.556 0 33.599-15.043 33.599-33.599.001-18.556-15.042-33.599-33.599-33.599z" fill="#f7e365"/></g><g><ellipse cx="443.769" cy="128.396" fill="#ffbee6" rx="51.926" ry="51.926" transform="matrix(.211 -.978 .978 .211 224.673 535.106)"/></g><g><path d="m443.769 76.47c-5.217 0-10.25.778-15 2.209 21.363 6.437 36.926 26.256 36.926 49.717s-15.563 43.28-36.926 49.717c4.75 1.431 9.783 2.209 15 2.209 28.678 0 51.926-23.248 51.926-51.926s-23.248-51.926-51.926-51.926z" fill="#eaacde"/></g><path d="m459.325 120.896h-8.057v-8.057c0-4.142-3.358-7.5-7.5-7.5s-7.5 3.358-7.5 7.5v8.057h-8.056c-4.142 0-7.5 3.358-7.5 7.5s3.358 7.5 7.5 7.5h8.056v8.057c0 4.142 3.358 7.5 7.5 7.5s7.5-3.358 7.5-7.5v-8.057h8.057c4.142 0 7.5-3.358 7.5-7.5s-3.358-7.5-7.5-7.5z" fill="#fbfbfb"/></g></svg>