<svg height="512" viewBox="0 0 54 58" width="512" xmlns="http://www.w3.org/2000/svg"><g id="Page-1" fill="none" fill-rule="evenodd"><g id="016---Sword-And-Heart" fill-rule="nonzero"><path id="Shape" d="m31.0000029 46.64-.0000029 5.66c.0007714.4547535-.1545465.8959976-.44 1.25l-3.56 4.45-3.56-4.45c-.2854535-.3540024-.4407714-.7952465-.44-1.25l-.0000029-5.66z" fill="#95a5a5"/><path id="Shape" d="m31.0000029 46.64-.0000029 5.66c.0007714.4547535-.1545465.8959976-.44 1.25l-3.56 4.45v-11.36z" fill="#7f8c8d"/><path id="Shape" d="m54 18.68c0 8.42-5.69 22.93-27 29.32-21.31-6.39-27-20.9-27-29.32-.00954611-2.4883952.49073635-4.9523714 1.47-7.24 2.15-4.94 6.49-8.44 12.03-8.44 3.7309066-.00681847 7.3817774 1.08148871 10.5 3.13h6c3.1182226-2.04851129 6.7690934-3.13681847 10.5-3.13 5.54 0 9.88 3.5 12.03 8.44.9792637 2.2876286 1.4795461 4.7516048 1.47 7.24z" fill="#802f34"/><path id="Shape" d="m53 15.5c0 11.87-11.64 21.5-26 21.5s-26-9.63-26-21.5c-.00139018-1.3669852.1563378-2.7294864.47-4.06 2.15-4.94 6.49-8.44 12.03-8.44 3.7309066-.00681847 7.3817774 1.08148871 10.5 3.13h6c3.1182226-2.04851129 6.7690934-3.13681847 10.5-3.13 5.54 0 9.88 3.5 12.03 8.44.3136622 1.3305136.4713902 2.6930148.47 4.06z" fill="#cc4b4c"/><path id="Shape" d="m30 35c0 1.6568542-1.3431458 3-3 3s-3-1.3431458-3-3c0-1.657 3-5 3-5s3 3.343 3 5z" fill="#fb7b76"/><path id="Shape" d="m16.121 35.121c-1.1771367 1.1369166-3.0482543 1.1206571-4.2054557-.0365443s-1.1734609-3.028319-.0365443-4.2054557c1.171-1.172 5.657-1.415 5.657-1.415s-.243 4.486-1.415 5.657z" fill="#fb7b76"/><path id="Shape" d="m11.766 52.745c-1.0859792 2.0183329-3.59212044 2.7895679-5.62497344 1.7310182-2.032853-1.0585496-2.83795258-3.5540179-1.80702656-5.6010182 1.069-2.052 6.941-4.258 6.941-4.258s1.559 6.076.491 8.128z" fill="#e64c3c"/><path id="Shape" d="m42.234 52.745c1.0859792 2.0183329 3.5921204 2.7895679 5.6249734 1.7310182 2.032853-1.0585496 2.8379526-3.5540179 1.8070266-5.6010182-1.069-2.052-6.941-4.258-6.941-4.258s-1.559 6.076-.491 8.128z" fill="#e64c3c"/><path id="Shape" d="m37.879 35.121c1.1771367 1.1369166 3.0482543 1.1206571 4.2054557-.0365443s1.1734609-3.028319.0365443-4.2054557c-1.171-1.172-5.657-1.415-5.657-1.415s.243 4.486 1.415 5.657z" fill="#fb7b76"/><path id="Shape" d="m23 26v-7.557-3.443h4 4v3.443 7.557z" fill="#95a5a5"/><path id="Shape" d="m26 0h2c1.1045695 0 2 .8954305 2 2v11h-6v-11c0-1.1045695.8954305-2 2-2z" fill="#14a085"/><path id="Rectangle-path" d="m27 15h4v11h-4z" fill="#7f8c8d"/><path id="Shape" d="m33 27h-12c-.5522847 0-1-.4477153-1-1s.4477153-1 1-1h12c.5522847 0 1 .4477153 1 1s-.4477153 1-1 1z" fill="#802f34"/><path id="Shape" d="m37 10c-1.267742.0022679-2.3962473.8037632-2.816 2h-14.368c-.511019-1.4345815-2.0172125-2.25728887-3.5004302-1.9119918-1.4832176.3452971-2.4711782 1.7486502-2.2960444 3.2614267.1751339 1.5127765 1.4575966 2.6532831 2.9804746 2.6505651h20c1.6568542 0 3-1.3431458 3-3s-1.3431458-3-3-3z" fill="#26b99a"/></g></g></svg>