<svg height="512" viewBox="0 0 58 58" width="512" xmlns="http://www.w3.org/2000/svg"><g id="Page-1" fill="none" fill-rule="evenodd"><g id="004---Sword" fill-rule="nonzero" transform="translate(0 -1)"><path id="Shape" d="m29 30-21.15-8.02 12.15 15.02 22.175 8.465z" fill="#f18d46"/><path id="Shape" d="m34.949 16.56 6.051 1.44 1.175 5.787-25.292 25.291-12.646 5.422 5.42-12.646z" fill="#95a5a5"/><path id="Shape" d="m42.18 23.79c-6.15 6.14-18.84 18.83-25.3 25.29l-12.64 5.42 36.69-36.52.07.02z" fill="#7f8c8d"/><path id="Rectangle-path" d="m44.151 7.488h9.083v5.11h-9.083z" fill="#14a085" transform="matrix(.707 -.707 .707 .707 7.16 37.372)"/><circle id="Oval" cx="53.918" cy="4.818" fill="#26b99a" r="3.832"/><path id="Shape" d="m33.142 3.914c1.142501 1.1477468 1.4381361 2.89071213.738 4.351l3.779 3.779c2-2 5.635-1.591 8.129.9s2.9 6.134.9 8.13l3.78 3.779c1.7575261-.8340392 3.8611158-.2164467 4.8888367 1.4353127 1.027721 1.6517594.6523433 3.8117598-.8723945 5.0199378-1.5247379 1.2081779-3.713354 1.0798455-5.0864422-.2982505l-21.675-21.676c-1.4966917-1.49641553-1.4969155-3.92280833-.0005-5.4195s3.9228083-1.49691553 5.4195-.0005z" fill="#26b99a"/><path id="Shape" d="m30.432 59.015-29.808-29.809c-.23949903-.239486-.37404928-.5643065-.37404928-.903s.13455025-.663514.37404928-.903l5.42-5.42c.23948596-.239499.56430647-.3740493.903-.3740493s.66351404.1345503.903.3740493l29.809 29.808-7.708-.481z" fill="#fac176"/><path id="Shape" d="m43.078 18.464c-.2651948-.0000566-.5195073-.1054506-.707-.293l-1.806-1.807c-.3789722-.3923789-.3735524-1.0160848.0121814-1.4018186s1.0094397-.3911536 1.4018186-.0121814l1.806 1.807c.2859079.2859943.3714219.7160366.216678 1.0896546-.1547439.3736179-.5192821.6172591-.923678.6173454z" fill="#14a085"/><path id="Rectangle-path" d="m19.073 27.439h22.995v2h-22.995z" fill="#bdc3c7" transform="matrix(.707 -.707 .707 .707 -11.156 29.947)"/><circle id="Oval" cx="54" cy="4" fill="#81ccb8" r="2"/><path id="Shape" d="m42.175 45.465-29.808-29.808 7.708.482-.482-7.708 29.807 29.808c.4988468.4990483.4988468 1.3079517 0 1.807l-5.419 5.419c-.4989335.4981808-1.3070665.4981808-1.806 0z" fill="#fac176"/></g></g></svg>