<svg height="512" viewBox="0 0 58 59" width="512" xmlns="http://www.w3.org/2000/svg"><g id="Page-1" fill="none" fill-rule="evenodd"><g id="007---Sword" fill-rule="nonzero" transform="translate(0 -1)"><path id="Shape" d="m13.06 37.45c-2.9-1.95-2.08-4.46-2.08-4.46 1.9821474-.2170869 3.9877539.0118324 5.87.67 1.7204605.5987668 3.1800442 1.7756223 4.13 3.33 1.44 2.4 1.86 4.54 3.7 5.82 1.09.74 2.69 1.18 5.3 1.18 0 0-2.86 3.84-8.61 2.13z" fill="#e64c3c"/><path id="Shape" d="m24.68 42.81-10.54 10.54-14.14 5.66 5.65-14.15 7.41-7.41 3.79-3.79c1.7204605.5987668 3.1800442 1.7756223 4.13 3.33 1.44 2.4 1.86 4.54 3.7 5.82z" fill="#95a5a5"/><path id="Shape" d="m26.25 24.26c-6.7-2.36-9.27 2.81-9.27 2.81 1.9634586-.218295 3.9508963.0002549 5.82.64 1.7403694.6021867 3.2177742 1.7897656 4.18 3.36 1.43 2.39 1.86 4.52 3.66 5.78 1.09.77 2.7 1.22 5.34 1.22-.0788964-1.7986157-.5643893-3.555963-1.42-5.14" fill="#e64c3c"/><path id="Shape" d="m41.46 26.03-10.82 10.82c-1.8-1.26-2.23-3.39-3.66-5.78-.9622258-1.5702344-2.4396306-2.7578133-4.18-3.36l3.45-3.45 6.73-6.73z" fill="#95a5a5"/><g fill="#35495e"><path id="Shape" d="m11.758 5.03-2.758.689v-2.719c0-.55228475-.44771525-1-1-1s-1 .44771525-1 1v2.719l-2.758-.689c-.34986931-.09594353-.72425997.00512494-.97831707.26410116s-.3479281.63523602-.24529352.9832013.38567503.61305264.73961059.69269754l2.542.635-2.1 2.795c-.21435935.2858125-.25995643.6642734-.11961524.9928203.14034118.3285469.44529946.5572656.8.6s.70525589-.1070078.91961524-.3928203l2.2-2.934 2.2 2.934c.3313709.4418278.9581722.5313708 1.4.2.4418278-.3313709.5313708-.9581722.2-1.4l-2.1-2.795 2.538-.635c.3539356-.0796449.636976-.34473226.7396106-.69269754s.0087636-.72422508-.2452935-.9832013-.6284478-.36004469-.9783171-.26410116z"/><path id="Shape" d="m57.97 39.757c-.1342322-.5352153-.6766155-.8605558-1.212-.727l-2.758.689v-2.719c0-.5522847-.4477153-1-1-1s-1 .4477153-1 1v2.719l-2.758-.689c-.3498693-.0959435-.72426.0051249-.9783171.2641012-.2540571.2589762-.3479281.635236-.2452935.9832013.1026346.3479652.385675.6130526.7396106.6926975l2.538.635-2.1 2.8c-.2143594.2858125-.2599565.6642735-.1196153.9928204s.4452995.5572656.8.6c.3547006.0427344.705256-.1070079.9196153-.3928204l2.204-2.939 2.2 2.934c.3313709.4418278.9581722.5313708 1.4.2.4418278-.3313709.5313708-.9581722.2-1.4l-2.1-2.8 2.538-.635c.5352823-.1320344.8627194-.6723951.732-1.208z"/><path id="Shape" d="m39.758 53.03-2.758.689v-2.719c0-.5522847-.4477153-1-1-1s-1 .4477153-1 1v2.719l-2.758-.689c-.3498693-.0959435-.72426.0051249-.9783171.2641012-.2540571.2589762-.3479281.635236-.2452935.9832013.1026346.3479652.385675.6130526.7396106.6926975l2.538.635-2.1 2.8c-.2143594.2858125-.2599565.6642735-.1196153.9928203.1403412.3285469.4452995.5572657.8.6000001.3547006.0427344.705256-.1070079.9196153-.3928204l2.204-2.939 2.2 2.934c.2143593.2858125.5649147.4355548.9196153.3928204.3547005-.0427344.6596588-.2714532.8-.6000001.1403412-.3285468.0947441-.7070078-.1196153-.9928203l-2.1-2.8 2.538-.635c.3539356-.0796449.636976-.3447323.7396106-.6926975.1026346-.3479653.0087636-.7242251-.2452935-.9832013-.2540571-.2589763-.6284478-.3600447-.9783171-.2641012z"/></g><path id="Shape" d="m24.68 42.81-10.54 10.54-14.14 5.66v-.01l.01-.01 21.34-21.34c1.16 2.13 1.66 4 3.33 5.16z" fill="#7f8c8d"/><path id="Shape" d="m41.46 26.03-10.82 10.82c-1.65-1.15-2.15-3.03-3.31-5.18l9.89-9.89z" fill="#7f8c8d"/><path id="Shape" d="m16.25 42.74v.01l-16.24 16.24 5.64-14.13z" fill="#bdc3c7"/><path id="Shape" d="m16.25 42.75-2.12 10.6-14.13 5.66v-.01z" fill="#95a5a5"/><path id="Shape" d="m55.422 9.233s3.536-3.533 2.122-7.779c-4.244-1.414-7.779 2.122-7.779 2.122l1.235 4.424z" fill="#14a085"/><path id="Rectangle-path" d="m40.719 7.322h13.912v8.001h-13.912z" fill="#14a085" transform="matrix(.707 -.707 .707 .707 5.957 37.027)"/><path id="Rectangle-path" d="m48.375 4.156h4.95v7.997h-4.95z" fill="#33907c" transform="matrix(.707 -.707 .707 .707 9.127 38.345)"/><path id="Shape" d="m56.835 30.45c-1.5642825 1.5597839-4.0957175 1.5597839-5.66 0l-4.24-4.25c-2.12 2.12-2.83 1.42-6.36-.7-1.8032327-1.0540735-3.985936-1.2378027-5.94-.5-.1788588.0626166-.3777737.0173982-.5119853-.1163873-.1342116-.1337856-.1800623-.3325557-.1180147-.5116127.7339933-1.9576283.5504564-4.1413507-.5-5.949-2.12-3.53-2.83-4.24-.71-6.36l-4.164-4.163c-1.376614-1.33863856-1.6300539-3.45744621-.608-5.083.8295142-1.28931831 2.3229837-1.99108275 3.8449697-1.80670777 1.521986.18437497 2.8046899 1.22244797 3.3023488 2.67254142.497659 1.45009346.1227084 3.0570585-.9653185 4.13716635l4.95 4.95c2.72 2.72 6.11.86 6.36.72-.14.25-2 3.63.71 6.35l4.95 4.95c1.5629658-1.5629658 4.0970341-1.5629658 5.66 0 1.5629658 1.5629659 1.5629658 4.0970342 0 5.66z" fill="#26b99a"/><path id="Shape" d="m38.452 21.546c-.4043959-.0000863-.7689341-.2437275-.923678-.6173454-.1547439-.373618-.0692299-.8036603.216678-1.0896546l2.121-2.121c.3923789-.3789722 1.0160848-.3735524 1.4018186.0121814s.3911536 1.0094397.0121814 1.4018186l-2.121 2.121c-.1870531.1882061-.4416514.2937185-.707.293z" fill="#e64c3c"/></g></g></svg>