<svg height="512" viewBox="0 0 60 61" width="512" xmlns="http://www.w3.org/2000/svg"><g id="Page-1" fill="none" fill-rule="evenodd"><g id="038---Illuminati" fill-rule="nonzero" transform="translate(-1)"><path id="Shape" d="m31 48h26l-26-44-26 44z" fill="#26b99a"/><path id="Shape" d="m8.505 46 22.495-38.069 22.495 38.069z" fill="#14a085"/><path id="Shape" d="m44.745 33.342c.3402118.3727031.3402118.9432969 0 1.316-1.736 1.913-7.232 7.342-13.745 7.342s-12.009-5.429-13.745-7.342c-.3402118-.3727031-.3402118-.9432969 0-1.316 1.736-1.913 7.232-7.342 13.745-7.342s12.009 5.429 13.745 7.342z" fill="#ecf0f1"/><g fill="#f0c419"><path id="Shape" d="m15.655 23.525c-.1757209-.0006154-.3481773-.0475236-.5-.136l-6.917-4.023c-.3173194-.1754016-.51484068-.5088209-.51622031-.8713887-.00137962-.3625678.19359856-.6974806.50957393-.875292s.70344408-.1706636 1.01264638.0186807l6.915 4.023c.389849.2271763.5792744.6872829.4623741 1.1230875-.1169004.4358045-.5111659.7393417-.9623741.7409125z"/><path id="Shape" d="m18.169 19.2c-.232725.0003476-.4581791-.0810566-.637-.23l-4.683-3.882c-.4082551-.3565378-.4581401-.9734199-.1124791-1.3909242.3456611-.4175044.9610152-.4836202 1.3874791-.1490758l4.684 3.882c.3247138.2690667.4457359.7129175.3025389 1.1095666-.1431971.3966491-.5198332.6608368-.9415389.6604334z"/><path id="Shape" d="m20.686 14.881c-.3084644.0006946-.5999862-.1410071-.79-.384l-3.316-4.243c-.3402074-.43520038-.2632004-1.06379258.172-1.40399997.4352004-.3402074 1.0637926-.26320039 1.404.17199997l3.317 4.243c.2354785.3011318.2786799.7101622.1113057 1.0538429-.1673742.3436806-.5160356.561872-.8983057.5621571z"/><path id="Shape" d="m23.2 10.559c-.337385.000176-.652113-.1697847-.837-.452l-2.451-3.74c-.1964961-.29867403-.2187252-.67948963-.058314-.99899724.1604113-.31950761.4790927-.52916642.836-.55.3569074-.02083357.6978179.15032321.894314.44899724l2.451 3.74c.2033688.30720582.2213477.70135118.0467914 1.0257959-.1745563.3244448-.5133703.5266301-.8817914.5262041z"/><path id="Shape" d="m25.714 6.237c-.3823951.00076527-.7317466-.21660898-.9-.56l-1.585-3.237c-.1756-.32268186-.1601325-.71566589.0402859-1.02354801s.5535144-.48108415.9196574-.45111398.6863732.25828643.8340567.59466199l1.587 3.24c.2431462.49568416.0385738 1.09462904-.457 1.338-.1367453.06639958-.2869916.10028201-.439.099z"/><path id="Shape" d="m13.142 27.847c-.1209722.0000552-.2409384-.0219725-.354-.065l-5.688-2.153c-.34407159-.1189887-.5962911-.4155684-.65847265-.7742842-.06218154-.3587158.0755009-.7228829.35944929-.9507357s.66929274-.2833856 1.00602336-.1449801l5.693 2.153c.4510852.1710957.7157025.639858.6291198 1.1144684-.0865826.4746103-.4996771.8197384-.9821198.8205316z"/><path id="Shape" d="m10.628 32.168c-.0491739.0001195-.0982953-.003222-.147-.01l-5.327-.786c-.53385433-.0931221-.89638844-.5945324-.81751181-1.1306767.07887663-.5361442.57045772-.9118985 1.10851181-.8473233l5.327.785c.5170335.0773012.8872735.5398012.849524 1.0612167-.0377496.5214155-.4707477.9257625-.993524.9277833z"/><path id="Shape" d="m8.114 36.49c-.021 0-.043 0-.064 0l-4.464-.282c-.55228475-.0350701-.97157008-.5112153-.9365-1.0635s.51121525-.9715701 1.0635-.9365l4.464.283c.55228474.017397.98589695.4792153.96849998 1.0315s-.47921524.985897-1.03149998.9685z"/><path id="Shape" d="m2 41.032c-.55228474.0168447-1.0136553-.4172153-1.03049998-.9695-.01684469-.5522847.41721524-1.0136553.96949998-1.0305l3.6-.22c.26556101-.0194474.52774492.0690091.72724648.245361.19950157.1763518.3194645.4256987.33275352.691639.01668114.2653374-.07298406.5263954-.24918131.7254852-.17619726.1990897-.42442104.3198211-.68981869.3355148l-3.6.22c-.02.002-.04.002-.06.002z"/><path id="Shape" d="m46.345 23.525c-.4512082-.0015708-.8454737-.305108-.9623741-.7409125-.1169003-.4358046.0725251-.8959112.4623741-1.1230875l6.915-4.023c.4757687-.2629861 1.0744802-.0977306 1.3479864.3720693s.1216121 1.0720398-.3419864 1.3559307l-6.915 4.023c-.1535814.0895001-.3282437.1364449-.506.136z"/><path id="Shape" d="m43.831 19.2c-.4217057.0004034-.7983418-.2637843-.9415389-.6604334-.143197-.3966491-.0221749-.8404999.3025389-1.1095666l4.684-3.882c.4264639-.3345444 1.041818-.2684286 1.3874791.1490758.345661.4175043.295776 1.0343864-.1124791 1.3909242l-4.683 3.882c-.1788209.1489434-.404275.2303476-.637.23z"/><path id="Shape" d="m41.314 14.881c-.3822701-.0002851-.7309315-.2184765-.8983057-.5621571-.1673742-.3436807-.1241728-.7527111.1113057-1.0538429l3.317-4.243c.3402074-.43520037.9687996-.51220738 1.404-.17199998s.5122074.9687996.172 1.40399998l-3.32 4.246c-.1897534.2407604-.4794516.3811866-.786.381z"/><path id="Shape" d="m38.8 10.559c-.3670897-.0005424-.7043726-.2021702-.8786464-.525255-.1742738-.32308482-.1575194-.71568236.0436464-1.022745l2.451-3.74c.1964961-.29867405.5374066-.46983084.894314-.44899727.3569073.02083358.6755887.2304924.836.55000001.1604113.31950762.1381821.70032323-.058314.99899726l-2.451 3.74c-.1858135.2806911-.50038.4490612-.837.448z"/><path id="Shape" d="m36.286 6.237c-.1520874.00097065-.3023376-.03325492-.439-.1-.4949981-.24335859-.6994717-.84156685-.457-1.337l1.587-3.24c.1476835-.33637556.4679137-.56469182.8340567-.59466199s.719239.14323186.9196574.45111398.2158859.70086615.0402859 1.02354801l-1.586 3.237c-.1680951.3430665-.5169654.56038279-.899.56z"/><path id="Shape" d="m48.858 27.847c-.4824427-.0007932-.8955372-.3459213-.9821198-.8205316-.0865827-.4746104.1780346-.9433727.6291198-1.1144684l5.689-2.153c.3367306-.1384055.722075-.0828727 1.0060234.1449801s.4216308.5920199.3594492.9507357c-.0621815.3587158-.314401.6552955-.6584726.7742842l-5.689 2.153c-.1130616.0430275-.2330278.0650552-.354.065z"/><path id="Shape" d="m51.372 32.168c-.5227763-.0020208-.9557744-.4063678-.993524-.9277833-.0377495-.5214155.3324905-.9839155.849524-1.0612167l5.327-.785c.5380541-.0645752 1.0296352.3111791 1.1085118.8473233.0788766.5361443-.2836575 1.0375546-.8175118 1.1306767l-5.327.786c-.0487047.006778-.0978261.0101195-.147.01z"/><path id="Shape" d="m53.886 36.49c-.5522847.017397-1.014103-.4162153-1.0315-.9685-.0173969-.5522847.4162153-1.014103.9685-1.0315l4.464-.283c.5522847-.0350701 1.0284299.3842153 1.0635.9365.03507.5522847-.3842153 1.0284299-.9365 1.0635l-4.464.282c-.021.001-.043.001-.064.001z"/><path id="Shape" d="m60 41.032c-.021 0-.041 0-.063 0l-3.6-.22c-.5511442-.0337632-.9706117-.5078466-.937-1.059.013289-.2659403.133252-.5152872.3327535-.691639.1995016-.1763519.4616855-.2648084.7272465-.245361l3.6.22c.5522847.0168447.9863447.4782153.9695 1.0305s-.4782153.9863447-1.0305.9695z"/><path id="Shape" d="m31.014 61c-.5522847 0-1-.4477153-1-1l-.014-7.97c0-.5522847.4477153-1 1-1s1 .4477153 1 1l.014 7.97c0 .5522847-.4477153 1-1 1z"/><path id="Shape" d="m37.01 59c-.4881779-.0000614-.9049625-.3525952-.986-.834l-1.008-5.977c-.0864757-.5419006.2799021-1.0522532.8209987-1.143625.5410965-.0913717 1.0547409.2703767 1.1510013.810625l1.012 5.976c.091607.5445362-.2754866 1.0602579-.82 1.152-.0560789.0103723-.1129706.0157268-.17.016z"/><path id="Shape" d="m43.009 57.994c-.4080876.0002331-.7753753-.2475278-.928-.626l-2.007-4.979c-.2065545-.5125202.0414798-1.0954455.554-1.302s1.0954455.0414798 1.302.554l2.007 4.979c.2055418.5119632-.0423544 1.093669-.554 1.3-.11868.0487141-.2457113.0738486-.374.074z"/><path id="Shape" d="m48.009 56.99c-.3801569.0026457-.7289345-.2104962-.9-.55l-2.006-3.983c-.2485281-.4937426-.0497426-1.0954719.444-1.344s1.0954719-.0497426 1.344.444l2.009 3.984c.1556512.3097524.139776.6780211-.0419536.9732298-.1817296.2952086-.5033859.4752394-.8500464.4757702z"/><path id="Shape" d="m53.007 55.986c-.3335458.0001626-.645215-.165986-.831-.443l-2-2.986c-.2116952-.296385-.2455041-.6844301-.0882553-1.0129598s.4806841-.545582.8443011-.5665972.7099041.1573306.9039542.465557l2 2.986c.205545.3064761.2255993.7012433.0521706 1.0269713-.1734288.3257281-.5121503.5294708-.8811706.5300287z"/><path id="Shape" d="m25.012 59.016c-.0550386-.0003518-.1099313-.0057071-.164-.016-.544764-.0898507-.9136265-.6041991-.824-1.149l.992-5.98c.0478992-.3619199.2892202-.6689756.6295657-.8010563s.7256213-.0681937 1.0051194.1666704c.2794982.2348641.4087955.6033763.3373149.9613859l-.988 5.982c-.0802897.4829462-.4984258.8367537-.988.836z"/><path id="Shape" d="m19.009 58.029c-.3320758.0002548-.6426171-.1643542-.8288036-.4393251-.1861865-.2749708-.2237287-.6244312-.1001964-.9326749l1.993-4.985c.2051738-.5130725.7874275-.7626737 1.3005-.5575.5130725.2051738.7626738.7874275.5575 1.3005l-1.994 4.985c-.1516748.3796505-.5191728.6287412-.928.629z"/><path id="Shape" d="m14.007 57.039c-.3464401-.000185-.6681037-.1796678-.8501945-.4743943-.1820909-.2947265-.1986643-.6627032-.0438055-.9726057l1.994-3.992c.1607695-.3202886.4801986-.530478.8379614-.5513918.3577629-.0209138.6995067.1506252.8965001.45.1969933.2993748.219308.6811032.0585385 1.0013918l-2 3.986c-.1691022.3384076-.5146946.5524195-.893.553z"/><path id="Shape" d="m9.005 56.05c-.36703681-.0015265-.70374044-.2040034-.87716881-.5274859-.17342838-.3234826-.15570635-.7159774.04616881-1.0225141l2-2.993c.3067942-.4595009.9279991-.5832941 1.3875-.2765.4595009.3067942.5832942.9279991.2765 1.3875l-2 2.992c-.18686335.2764625-.49931279.4415018-.833.44z"/></g><path id="Shape" d="m36 33c0 2.7614237-2.2385763 5-5 5s-5-2.2385763-5-5c-.0020014-.9220469.2543524-1.8262138.74-2.61 2.8161969-.5200035 5.7038031-.5200035 8.52 0 .4856476.7837862.7420014 1.6879531.74 2.61z" fill="#35495e"/><path id="Shape" d="m13.63 48h-8.63l4.1-6.93c1.5287727.1935891 3.0002211.7045087 4.32 1.5.5237731 1.7638287.5959837 3.6309873.21 5.43z" fill="#33907c"/><path id="Shape" d="m57 48h-8.63c-.3859837-1.7990127-.3137731-3.6661713.21-5.43 1.3197789-.7954913 2.7912273-1.3064109 4.32-1.5z" fill="#33907c"/><path id="Shape" d="m35.2 11.11c-1.1563736 1.2766514-2.5944248 2.2661675-4.2 2.89-1.6055752-.6238325-3.0436264-1.6133486-4.2-2.89l4.2-7.11z" fill="#33907c"/><path id="Shape" d="m44.78 34.62-.78-.62c-2.602342-1.8497092-5.5908672-3.0841-8.74-3.61-2.8161969-.5200035-5.7038031-.5200035-8.52 0-3.1491328.5259-6.137658 1.7602908-8.74 3.61l-.78.62c-.3133948-.3750044-.2961983-.9252954.04-1.28 1.73-1.91 7.23-7.34 13.74-7.34s12.01 5.43 13.74 7.34c.3361983.3547046.3533948.9049956.04 1.28z" fill="#fdd7ad"/><circle id="Oval" cx="27" cy="34" fill="#ecf0f1" r="2"/></g></g></svg>