<svg height="512" viewBox="0 0 59 58" width="512" xmlns="http://www.w3.org/2000/svg"><g id="Page-1" fill="none" fill-rule="evenodd"><g id="043---Eye-and-Moon" fill-rule="nonzero" transform="translate(-1)"><path id="Shape" d="m34.78 29.3c-1.1786866 1.5203436-2.4905442 2.9325984-3.92 4.22l-.01.01c-2.93 2.65-7.15 5.47-11.85 5.47s-8.92-2.82-11.85-5.47l-.01-.01c-1.42945583-1.2874016-2.74131337-2.6996564-3.92-4.22-.13009092-.1788454-.13009092-.4211546 0-.6 1.17868663-1.5203436 2.49054417-2.9325984 3.92-4.22l.01-.01c2.93-2.65 7.15-5.47 11.85-5.47s8.92 2.82 11.85 5.47l.01.01c1.4294558 1.2874016 2.7413134 2.6996564 3.92 4.22.1300909.1788454.1300909.4211546 0 .6z" fill="#ecf0f1"/><path id="Shape" d="m59.94 30.86c-1.0169657 14.846653-13.0598536 26.5402843-27.93 27.12-7.441113.264527-14.697713-2.3501413-20.26-7.3-.1878334-.1637148-.2264626-.4407406-.0905814-.6495951.1358813-.2088545.4047985-.2857898.6305814-.1804049 9.6602228 4.4986801 21.145587 1.7725022 27.7536288-6.5876301s6.6080418-20.1646075 0-28.5247398c-6.6080418-8.36013229-18.093406-11.08631023-27.7536288-6.5876301-.2275131.12203966-.5105316.05079251-.653144-.16442264-.1426125-.21521515-.0979184-.50362123.103144-.66557736 5.3096042-4.71189944 12.1611356-7.31590827 19.26-7.32 8.014237.00008021 15.6711473 3.31665833 21.1532957 9.16251528 5.4821485 5.84585692 8.3007209 13.69974872 7.7867043 21.69748472z" fill="#f3d55b"/><path id="Shape" d="m52.95 30.6c-.88 13.23-13.08 23.9-27.86 24.4-2.8541981.0982757-5.7088763-.1808035-8.49-.83-1.733174-.992222-3.3585668-2.1618346-4.85-3.49-.1878334-.1637148-.2264626-.4407406-.0905814-.6495951.1358813-.2088545.4047985-.2857898.6305814-.1804049 9.6602228 4.4986801 21.145587 1.7725022 27.7536288-6.5876301s6.6080418-20.1646075 0-28.5247398c-6.6080418-8.36013229-18.093406-11.08631023-27.7536288-6.5876301-.2275131.12203966-.5105316.05079251-.653144-.16442264-.1426125-.21521515-.0979184-.50362123.103144-.66557736 1.4588367-1.29915931 3.0471583-2.44516351 4.74-3.42 2.4404879-.58417262 4.9405802-.88284137 7.45-.89 16.63-.05 30.02 12.47 29.02 27.59z" fill="#f0c419"/><path id="Shape" d="m26 28c-.0000001 3.8659932-3.1340068 6.9999999-7 6.9999999s-6.9999999-3.1340067-7-6.9999999c-.0091183-1.5834252.5316569-3.1209233 1.53-4.35 3.5951733-.8666696 7.3448267-.8666696 10.94 0 .9983431 1.2290767 1.5391183 2.7665748 1.53 4.35z" fill="#2fa8cc"/><g fill="#67b9cc"><path id="Shape" d="m19 16c-.5522847 0-1-.4477153-1-1v-4c0-.5522847.4477153-1 1-1s1 .4477153 1 1v4c0 .5522847-.4477153 1-1 1z"/><path id="Shape" d="m13 17c-.4306074.0001037-.8129281-.2754572-.949-.684l-1-3c-.174522-.5246705.1093295-1.091478.634-1.266.5246705-.1745219 1.091478.1093295 1.266.634l1 3c.1016886.3053075.0502399.6408961-.1382416.9017179-.1884814.2608218-.4909623.4150035-.8127584.4142821z"/><path id="Shape" d="m8 20c-.26519481-.0000566-.51950727-.1054506-.707-.293l-2-2c-.37897221-.3923789-.37355237-1.0160848.01218142-1.4018186.3857338-.3857338 1.00943969-.3911536 1.40181858-.0121814l2 2c.28590792.2859943.37142191.7160366.21667798 1.0896546-.15474393.3736179-.51928208.6172591-.92367798.6173454z"/><path id="Shape" d="m3 24c-.26519481-.0000566-.51950727-.1054506-.707-.293l-1-1c-.25995658-.2510745-.3642126-.6228779-.27269716-.9725073.09151544-.3496295.3645604-.6226744.71418984-.7141899.34962943-.0915154.72143285.0127406.97250732.2726972l1 1c.28590792.2859943.37142191.7160366.21667798 1.0896546-.15474393.3736179-.51928208.6172591-.92367798.6173454z"/><path id="Shape" d="m25 17c-.3214436.0000774-.6233283-.1543712-.8113424-.4150947-.1880141-.2607234-.2392338-.5959327-.1376576-.9009053l1-3c.174522-.5246705.7413295-.8085219 1.266-.634.5246705.174522.808522.7413295.634 1.266l-1 3c-.1363037.4092423-.5196567.6849662-.951.684z"/><path id="Shape" d="m30 20c-.4043959-.0000863-.7689341-.2437275-.923678-.6173454-.1547439-.373618-.0692299-.8036603.216678-1.0896546l2-2c.3923789-.3789722 1.0160848-.3735524 1.4018186.0121814s.3911536 1.0094397.0121814 1.4018186l-2 2c-.1874927.1875494-.4418052.2929434-.707.293z"/><path id="Shape" d="m35 24c-.4043959-.0000863-.7689341-.2437275-.923678-.6173454-.1547439-.373618-.0692299-.8036603.216678-1.0896546l1-1c.3923789-.3789722 1.0160848-.3735524 1.4018186.0121814s.3911536 1.0094397.0121814 1.4018186l-1 1c-.1874927.1875494-.4418052.2929434-.707.293z"/><path id="Shape" d="m19 48c-.5522847 0-1-.4477153-1-1v-4c0-.5522847.4477153-1 1-1s1 .4477153 1 1v4c0 .5522847-.4477153 1-1 1z"/><path id="Shape" d="m12 46c-.3214436.0000774-.6233283-.1543712-.8113424-.4150947-.1880141-.2607234-.2392338-.5959327-.1376576-.9009053l1-3c.174522-.5246705.7413295-.808522 1.266-.634s.808522.7413295.634 1.266l-1 3c-.1363037.4092423-.5196567.6849662-.951.684z"/><path id="Shape" d="m6 42c-.4043959-.0000863-.76893405-.2437275-.92367798-.6173454-.15474393-.373618-.06922994-.8036603.21667798-1.0896546l2-2c.39237889-.3789722 1.01608478-.3735524 1.40181858.0121814.38573379.3857338.39115363 1.0094397.01218142 1.4018186l-2 2c-.18749273.1875494-.44180519.2929434-.707.293z"/><path id="Shape" d="m2 37c-.4043959-.0000863-.76893405-.2437275-.92367798-.6173454-.15474393-.373618-.06922994-.8036603.21667798-1.0896546l1-1c.39237889-.3789722 1.01608478-.3735524 1.40181858.0121814.38573379.3857338.39115363 1.0094397.01218142 1.4018186l-1 1c-.18749273.1875494-.44180519.2929434-.707.293z"/><path id="Shape" d="m26 46c-.4306074.0001037-.8129281-.2754572-.949-.684l-1-3c-.174522-.5246705.1093295-1.091478.634-1.266.5246705-.1745219 1.091478.1093295 1.266.634l1 3c.1016886.3053075.0502399.6408961-.1382416.9017179-.1884814.2608218-.4909623.4150035-.8127584.4142821z"/><path id="Shape" d="m32 42c-.2651948-.0000566-.5195073-.1054506-.707-.293l-2-2c-.3789722-.3923789-.3735524-1.0160848.0121814-1.4018186s1.0094397-.3911536 1.4018186-.0121814l2 2c.2859079.2859943.3714219.7160366.216678 1.0896546-.1547439.3736179-.5192821.6172591-.923678.6173454z"/><path id="Shape" d="m36 37c-.2651948-.0000566-.5195073-.1054506-.707-.293l-1-1c-.3789722-.3923789-.3735524-1.0160848.0121814-1.4018186s1.0094397-.3911536 1.4018186-.0121814l1 1c.2859079.2859943.3714219.7160366.216678 1.0896546-.1547439.3736179-.5192821.6172591-.923678.6173454z"/></g><circle id="Oval" cx="19" cy="29" fill="#35495e" r="3"/><circle id="Oval" cx="14" cy="28" fill="#ecf0f1" r="3"/><path id="Shape" d="m7.14 33.52c-1.32338936-1.195352-2.54742019-2.4963028-3.66-3.89l.52-.63c.66837746-.7361664 1.41248822-1.3998327 2.22-1.98-.14937113.64932-.22319428 1.3137283-.22 1.98.00381452 1.5773268.39530031 3.1295336 1.14 4.52z" fill="#fb7b76"/><path id="Shape" d="m34.52 29.63c-1.1125798 1.3936972-2.3366106 2.694648-3.66 3.89.7446997-1.3904664 1.1361855-2.9426732 1.14-4.52.0031943-.6662717-.0706289-1.33068-.22-1.98.8075118.5801673 1.5516225 1.2438336 2.22 1.98z" fill="#fb7b76"/><path id="Shape" d="m34.78 29.3c-.07.09-.16.2-.26.33l-.52-.63c-2.5777908-2.6864091-5.894217-4.5482013-9.53-5.35-3.5951733-.8666696-7.3448267-.8666696-10.94 0-3.63578298.8017987-6.9522092 2.6635909-9.53 5.35l-.52.63c-.1-.13-.19-.24-.26-.33-.13009092-.1788454-.13009092-.4211546 0-.6 1.28-1.67 7.86-9.7 15.78-9.7s14.5 8.03 15.78 9.7c.1300909.1788454.1300909.4211546 0 .6z" fill="#fdd7ad"/></g></g></svg>