<svg height="512" viewBox="0 0 58 59" width="512" xmlns="http://www.w3.org/2000/svg"><g id="Page-1" fill="none" fill-rule="evenodd"><g id="018---Eye" fill-rule="nonzero"><path id="Shape" d="m57.51 25.3c-.51.58-1.18 1.31-2.01 2.16-4.85 4.97-14.89 13.54-26.5 13.54s-21.65-8.57-26.5-13.54c-.83-.85-1.5-1.58-2.01-2.16-.65003637-.744778-.65003637-1.855222 0-2.6.51-.58 1.18-1.31 2.01-2.16 4.85-4.97 14.89-13.54 26.5-13.54s21.65 8.57 26.5 13.54c.83.85 1.5 1.58 2.01 2.16.6500364.744778.6500364 1.855222 0 2.6z" fill="#fb7b76"/><path id="Shape" d="m56 24c.0000637 1.1713391-.1683265 2.3365998-.5 3.46-4.85 4.97-14.89 13.54-26.5 13.54s-21.65-8.57-26.5-13.54c-.66664392-2.2585004-.66664392-4.6614996 0-6.92 4.85-4.97 14.89-13.54 26.5-13.54s21.65 8.57 26.5 13.54c.3316735 1.1234002.5000637 2.2886609.5 3.46z" fill="#ecf0f1"/><path id="Shape" d="m34 54c0 2.7614237-2.2385763 5-5 5s-5-2.2385763-5-5c0-2.761 5-9 5-9s5 6.239 5 9z" fill="#3b97d3"/><path id="Shape" d="m11.955 51.059c-1.6938104 2.1699372-4.82298707 2.5626058-7.00043215.878458-2.17744509-1.6841477-2.58401977-4.811548-.90956785-6.996458 1.69-2.185 9.461-4.06 9.461-4.06s.139 7.993-1.551 10.178z" fill="#3b97d3"/><path id="Shape" d="m46.045 51.059c1.0898151 1.4220461 2.8571961 2.1522982 4.6329341 1.9142503s3.2883848-1.4080066 3.9651852-3.0668778c.6768004-1.6588711.4142952-3.5530714-.6881193-4.9653725-1.69-2.185-9.461-4.06-9.461-4.06s-.139 7.993 1.551 10.178z" fill="#3b97d3"/><g fill="#f0c419"><path id="Shape" d="m29 4c-.5522847 0-1-.44771525-1-1v-2c0-.55228475.4477153-1 1-1s1 .44771525 1 1v2c0 .55228475-.4477153 1-1 1z"/><path id="Shape" d="m18 6c-.3808256.00207881-.7297741-.21233064-.9-.553l-1-2c-.2468713-.49429485-.0462949-1.09512872.448-1.342s1.0951287-.04629485 1.342.448l1 2c.1545455.30926678.1383796.6764236-.0427493.97091061-.1811288.29448701-.5015228.47452363-.8472507.47608939z"/><path id="Shape" d="m8 11c-.19724501.0002071-.39009219-.0582737-.554-.168l-1.846-1.232c-.31059295-.19231506-.49160108-.53869158-.47213982-.90348512.01946126-.36479353.23629457-.68994574.56558587-.84812381s.71863258-.12420733 1.01555395.08860893l1.846 1.231c.36665571.24448513.53004275.7001723.40227078 1.1219349-.12777198.4217626-.51657885.710164-.95727078.7100651z"/><path id="Shape" d="m40 6c-.3475069.00190212-.6710847-.17674355-.8546237-.47183356-.1835391-.29509001-.2007194-.66430762-.0453763-.97516644l1-2c.2468713-.49429485.8477051-.69487128 1.342-.448s.6948713.84770515.448 1.342l-1 2c-.1686168.3374448-.5127763.55128772-.89.553z"/><path id="Shape" d="m50 11c-.4408769.0005403-.8300902-.2877099-.9581268-.709586-.1280366-.421876.0353166-.87782653.4021268-1.122414l1.846-1.231c.2969877-.20876614.683789-.24018667 1.0105775-.08209092.3267885.15809574.5422331.48087444.5628819.84330874.0206489.3624343-.1567415.70759387-.4634594.90178218l-1.845 1.231c-.1640783.1102699-.3573105.16911-.555.169z"/></g><path id="Shape" d="m43 24c.0044009 4.2372527-1.9159425 8.247165-5.22 10.9-2.8718457.7180719-5.8197692 1.0874018-8.78 1.1-2.9602308-.0125982-5.9081543-.3819281-8.78-1.1-3.300612-2.6555817-5.2201596-6.6637099-5.2201596-10.9s1.9195476-8.2444183 5.2201596-10.9c2.8718457-.7180719 5.8197692-1.0874018 8.78-1.1 2.9602308.0125982 5.9081543.3819281 8.78 1.1 3.3040575 2.652835 5.2244009 6.6627473 5.22 10.9z" fill="#2fa8cc"/><circle id="Oval" cx="29" cy="21" fill="#67b9cc" r="11"/><circle id="Oval" cx="29" cy="21" fill="#2c3e50" r="5"/><path id="Shape" d="m57.9 23.4c-2.94-2.42-14.76-11.4-28.9-11.4-14.16 0-25.99 9-28.9 11.41.07592184-.2625844.209118-.5050697.39-.71 3.49-3.97 14.93-15.7 28.51-15.7s25.02 11.73 28.51 15.7c.1789749.2024672.3120192.4412647.39.7z" fill="#fdd7ad"/><path id="Shape" d="m57.9 24.59c-.0759218.2625844-.209118.5050697-.39.71-3.49 3.97-14.93 15.7-28.51 15.7s-25.02-11.73-28.51-15.7c-.180882-.2049303-.31407816-.4474156-.39-.71 2.91 2.41 14.74 11.41 28.9 11.41s25.99-9 28.9-11.41z" fill="#fdd7ad"/><circle id="Oval" cx="24" cy="17" fill="#ecf0f1" r="4"/><circle id="Oval" cx="40" cy="30" fill="#ecf0f1" r="2"/></g></g></svg>